# xmcd
#
# Track frame offsets:
#	150
#	17500
#	28197
#	39390
#	48800
#	58738
#	73059
#	85237
#	106190
#	121633
#	134616
#
# Disc length: 1922
#
# Revision: 1
# Processed by: cddbd v1.5.1PL0 Copyright (c) Steve Scherf et al.
# Submitted via: CDex 1.51
# Normalized: r0:TRMNUM
#
DISCID=8b07800b
DTITLE=C Company (Featuring Terry Nelson) - Wake Up America
DYEAR=1971
DGENRE=Country
TTITLE0=Battle Hymn Of Lt. Calley
TTITLE1=When The Great Men Signed There Names
TTITLE2=Mr. Sherman's Army
TTITLE3=Wars and Wars
TTITLE4=Johnny Reb
TTITLE5=The Star Spangled Ballad
TTITLE6=Wake Up America
TTITLE7=Buffalo Boldier
TTITLE8=War Baby
TTITLE9=Until We Bring Our Johnnies Home Again
TTITLE10=Yankee Doodle Dandy
EXTD=YEAR: 1971
EXTT0=
EXTT1=
EXTT2=
EXTT3=
EXTT4=
EXTT5=
EXTT6=
EXTT7=
EXTT8=
EXTT9=
EXTT10=
PLAYORDER=
